# xmcd
#
# Track frame offsets:
#	182
#	65985
#	77320
#	93552
#	113040
#	126430
#	145677
#	162822
#	174925
#
# Disc length: 2626 seconds
#
# Revision: 2
# Processed by: cddbd v1.4PL0 Copyright (c) Steve Scherf et al.
# Submitted via: audiograbber 1.82.02
#
DISCID=710a4009
DTITLE=Werner Widmer - Ehrewort
DYEAR=1900
DGENRE=
TTITLE0=Ego Blues
TTITLE1=Samstigmorge
TTITLE2=Mäntigmorge
TTITLE3=Trip In Süde
TTITLE4=Uf De Kurve
TTITLE5=S'Schuellied
TTITLE6=De Alt Ma
TTITLE7=S'Erscht Für De Chli
TTITLE8=Sensemaa
EXTD=
EXTT0=
EXTT1=
EXTT2=
EXTT3=
EXTT4=
EXTT5=
EXTT6=
EXTT7=
EXTT8=
PLAYORDER=
